# xmcd
#
# Track frame offsets: 
#        150
#        11235
#        23620
#        35857
#        55515
#        73642
#        84512
#        96937
#        111067
#        126122
#
# Disc length: 1921 seconds
#
# Revision: 3
# Processed by: cddbd v1.5.1PL2 Copyright (c) Steve Scherf et al.
# Submitted via: ExactAudioCopy v0.95a5
#
DISCID=7d077f0a
DTITLE=Various Artist - Country Christmas
DYEAR=1900
DGENRE=
TTITLE0=Trisha Yearwood - Let It Snow, Let It Snow, Let It Snow
TTITLE1=George Strait - Away In A Manger
TTITLE2=Tracy Byrd - Jingle Bells
TTITLE3=Steve Wariner - Do You Hear What I Hear
TTITLE4=The Judds - O Holy Night
TTITLE5=John Berry - God Rest Ye Merry Gentlemen
TTITLE6=Mark Chesnutt - What Child Is This
TTITLE7=Lorrie Morgan - Sleigh Ride
TTITLE8=Alabama - Happy Holidays
TTITLE9=Vince Gill - Have Yourself A Merry Little Christmas
EXTD=
EXTT0=
EXTT1=
EXTT2=
EXTT3=
EXTT4=
EXTT5=
EXTT6=
EXTT7=
EXTT8=
EXTT9=
PLAYORDER=
